<?xml version="1.0" encoding="UTF-8" standalone="no"?>
<svg
   xmlns:dc="http://purl.org/dc/elements/1.1/"
   xmlns:cc="http://creativecommons.org/ns#"
   xmlns:rdf="http://www.w3.org/1999/02/22-rdf-syntax-ns#"
   xmlns:svg="http://www.w3.org/2000/svg"
   xmlns="http://www.w3.org/2000/svg"
   xmlns:sodipodi="http://sodipodi.sourceforge.net/DTD/sodipodi-0.dtd"
   xmlns:inkscape="http://www.inkscape.org/namespaces/inkscape"
   width="61.973171mm"
   height="69.461494mm"
   viewBox="0 0 61.973171 69.461494"
   version="1.1"
   id="svg8"
   inkscape:version="1.0 (4035a4f, 2020-05-01)"
   sodipodi:docname="logo.svg">
  <defs
     id="defs2" />
  <sodipodi:namedview
     id="base"
     pagecolor="#ffffff"
     bordercolor="#666666"
     borderopacity="1.0"
     inkscape:pageopacity="0.0"
     inkscape:pageshadow="2"
     inkscape:zoom="0.24779389"
     inkscape:cx="-177.26099"
     inkscape:cy="313.12965"
     inkscape:document-units="mm"
     inkscape:current-layer="layer1"
     inkscape:document-rotation="0"
     showgrid="false"
     inkscape:window-width="1280"
     inkscape:window-height="673"
     inkscape:window-x="0"
     inkscape:window-y="25"
     inkscape:window-maximized="1" />
  <metadata
     id="metadata5">
    <rdf:RDF>
      <cc:Work
         rdf:about="">
        <dc:format>image/svg+xml</dc:format>
        <dc:type
           rdf:resource="http://purl.org/dc/dcmitype/StillImage" />
        <dc:title></dc:title>
      </cc:Work>
    </rdf:RDF>
  </metadata>
  <g
     style="display:inline"
     transform="translate(-124.00779,-70.498022)"
     inkscape:groupmode="layer"
     id="layer6"
     inkscape:label="Purple">
    <rect
       transform="matrix(-0.78729705,-0.61657389,0.78729705,-0.61657389,78.688099,-8.8913105)"
       ry="7.5639648"
       y="-74.457672"
       x="-171.3795"
       height="43.779312"
       width="43.779312"
       id="rect28"
       style="display:inline;fill:#7458ff;fill-opacity:1;stroke-width:0.237634" />
  </g>
  <g
     style="display:inline"
     transform="translate(-124.00779,-70.498022)"
     inkscape:groupmode="layer"
     id="layer5"
     inkscape:label="Lav">
    <rect
       style="display:inline;opacity:0.9;fill:#b44cff;fill-opacity:1;stroke-width:0.237634"
       id="rect60"
       width="43.779312"
       height="43.779312"
       x="-162.89439"
       y="-65.972557"
       ry="7.5639648"
       transform="matrix(-0.78729705,-0.61657389,0.78729705,-0.61657389,78.688099,-8.8913105)" />
  </g>
  <g
     transform="translate(-124.00779,-70.498022)"
     inkscape:groupmode="layer"
     id="layer3"
     inkscape:label="Pink"
     style="display:inline">
    <path
       transform="scale(0.26458333)"
       d="m 585.80469,266.44922 c -8.13644,0 -16.2713,2.44161 -22.50586,7.32422 l -85.25586,66.76758 c -12.46908,9.76521 -12.46912,25.48868 0,35.2539 l 85.25586,66.76758 c 12.46911,9.76524 32.54459,9.76696 45.01367,0.002 l 85.25586,-66.76953 c 12.46911,-9.76522 12.46911,-25.48868 0,-35.2539 L 608.3125,273.77344 c -6.23456,-4.88262 -14.37138,-7.32422 -22.50781,-7.32422 z m -16.03125,40.16406 a 19.570589,19.570589 0 0 1 13.71875,5.73828 20.720361,20.720361 0 0 1 2.64648,3.44141 19.570589,19.570589 0 0 1 26.31055,24.89258 l -2.43945,-0.29493 a 4.8926468,4.8926468 0 0 0 -5.39649,5.39844 c 0.1039,1.03789 0.2935,2.40271 0.44922,3.87305 a 19.570589,19.570589 0 0 1 -10.13672,3.21875 17.368898,17.368898 0 0 1 -16.03516,22.60742 15.387375,15.387375 0 0 1 -23.43945,15.86328 16.439295,16.439295 0 1 1 -27.98828,-12.93945 16.683927,16.683927 0 0 1 3.82422,-2.85352 17.417824,17.417824 0 0 1 1.40039,-19.63281 18.469743,18.469743 0 1 1 17.57422,-32.41797 19.570589,19.570589 0 0 1 19.14062,-16.89258 19.570589,19.570589 0 0 1 0.3711,-0.002 z m 34.27539,3.31641 a 19.399346,19.399346 0 0 1 0.21094,0 19.399346,19.399346 0 0 1 13.65625,5.70703 20.671435,20.671435 0 0 1 2.57617,3.37305 19.570589,19.570589 0 1 1 15.81054,35.63476 14.506699,14.506699 0 0 0 -3.96093,-7.41992 c -2.95797,-2.95798 -9.39262,-4.75731 -14.94532,-5.8125 a 24.194141,24.194141 0 0 0 -15.93164,-31.29297 19.399346,19.399346 0 0 1 2.58399,-0.18945 z m 5.42578,35.32226 c 0,0 15.55017,1.71227 19.37305,5.53516 A 9.7852999,9.7852999 0 0 1 615.00977,364.625 c -3.82288,-3.82288 -5.53516,-19.37305 -5.53516,-19.37305 z m -3.42578,9.58399 c 1.08979,5.10294 2.8188,10.56879 5.5,13.25 a 14.677942,14.677942 0 0 0 15.46484,3.35547 20.206633,20.206633 0 0 1 -1.91992,2.30078 16.70839,16.70839 0 0 1 -2.75,2.23047 80.092632,80.092632 0 0 0 -14.13281,-2.78516 4.892647,4.892647 0 0 0 -5.39649,5.39844 74.221457,74.221457 0 0 0 3.42383,16.15625 15.313986,15.313986 0 0 1 -16.38086,-0.1211 16.414831,16.414831 0 0 1 -27.90234,10.36133 16.586074,16.586074 0 0 1 -3.78711,-5.6914 c 0.20757,-0.41515 0.43237,-0.84658 0.60547,-1.26172 a 20.25556,20.25556 0 0 0 25.25586,-18.33594 22.310471,22.310471 0 0 0 16.64062,-22.66211 25.123743,25.123743 0 0 0 5.37891,-2.19531 z m 1.69531,23.2832 c 0,0 15.55017,1.71228 19.37305,5.53516 a 9.7853068,9.7853068 0 0 1 -13.83789,13.83789 c -3.82288,-3.82292 -5.53516,-19.37305 -5.53516,-19.37305 z"
       style="display:inline;opacity:0.9;fill:#ff3dff;fill-opacity:1;stroke-width:0.884957"
       mask="none"
       id="rect64" />
  </g>
  <g
     transform="translate(-124.00779,-70.498022)"
     style="display:inline;opacity:0.8;mix-blend-mode:normal"
     inkscape:label="Clouds"
     id="layer1"
     inkscape:groupmode="layer">
    <g
       style="display:inline"
       id="g138">
      <path
         style="fill:#ffffff;stroke-width:0.647256"
         id="path123"
         d="m 165.92497,101.5084 a 2.5890291,2.5890291 0 0 1 -3.66144,3.66144 c -1.01147,-1.01148 -1.46457,-5.12601 -1.46457,-5.12601 0,0 4.11454,0.4531 5.12601,1.46457 z" />
      <path
         style="fill:#ffffff;stroke-width:0.647256"
         id="path125"
         d="m 161.80585,97.389285 c -0.7094,-0.709403 -1.16708,-2.15567 -1.45542,-3.505824 a 6.6473238,6.6473238 0 0 1 -1.42338,0.581252 5.9029789,5.9029789 0 0 1 -4.40288,5.995597 5.3592835,5.3592835 0 0 1 -6.68212,4.85141 c -0.0458,0.10984 -0.10526,0.22426 -0.16018,0.3341 a 4.3883988,4.3883988 0 0 0 1.00231,1.50577 4.3430908,4.3430908 0 0 0 7.38237,-2.7415 4.0518254,4.0518254 0 0 0 4.33423,0.032 19.637761,19.637761 0 0 1 -0.90621,-4.27472 1.2945129,1.2945129 0 0 1 1.42796,-1.427961 21.191176,21.191176 0 0 1 3.73924,0.736864 4.4207616,4.4207616 0 0 0 0.72771,-0.590406 5.3463383,5.3463383 0 0 0 0.50803,-0.608714 3.8835387,3.8835387 0 0 1 -4.09166,-0.887898 z" />
      <path
         style="fill:#ffffff;stroke-width:0.647256"
         id="path127"
         d="m 164.17206,84.40492 a 5.4693171,5.4693171 0 0 0 -0.68195,-0.892475 5.1327437,5.1327437 0 0 0 -4.35253,-1.459998 6.4013664,6.4013664 0 0 1 4.21523,8.279421 c 1.46915,0.279185 3.17172,0.755171 3.95435,1.537803 a 3.8382308,3.8382308 0 0 1 1.04809,1.963445 5.1780517,5.1780517 0 1 0 -4.18319,-9.428196 z" />
      <path
         style="fill:#ffffff;stroke-width:0.647256"
         id="path129"
         d="m 159.97056,91.489797 a 1.2945129,1.2945129 0 0 1 1.42796,-1.42796 l 0.64533,0.07781 a 5.1780517,5.1780517 0 0 0 -6.96131,-6.586007 5.4822622,5.4822622 0 0 0 -0.70025,-0.910782 5.1780517,5.1780517 0 0 0 -8.79202,2.952032 4.8867863,4.8867863 0 1 0 -4.65002,8.576913 4.608466,4.608466 0 0 0 -0.37072,5.194661 4.414289,4.414289 0 0 0 -1.01147,0.755166 4.3495634,4.3495634 0 1 0 7.40525,3.42344 4.0712431,4.0712431 0 0 0 6.20155,-4.196913 4.5955208,4.5955208 0 0 0 4.24269,-5.98187 5.1780517,5.1780517 0 0 0 2.682,-0.851284 c -0.0412,-0.389027 -0.0915,-0.750594 -0.11899,-1.025202 z" />
      <path
         style="fill:#ffffff;stroke-width:0.647256"
         id="path131"
         d="m 166.38265,92.812491 a 2.5890273,2.5890273 0 0 1 -3.66144,3.661435 c -1.01147,-1.011471 -1.46457,-5.12601 -1.46457,-5.12601 0,0 4.11454,0.453103 5.12601,1.464575 z" />
    </g>
  </g>
</svg>
